# xmcd
#
# Track frame offsets: 
#        150
#        11998
#        25374
#        40878
#        52304
#        65204
#        77120
#        88392
#        99679
#        112104
#        126870
#        138500
#        152362
#        163901
#        174587
#
# Disc length: 2519 seconds
#
# Revision: 0
# Processed by: cddbd v1.5.2PL0 Copyright (c) Steve Scherf et al.
# Submitted via: ExactAudioCopy v0.99pb3
#
DISCID=df09d50f
DTITLE=anibal troilo - buenos aires tango
DYEAR=1900
DGENRE=Classical
TTITLE0=quejas del bandoneon
TTITLE1=malena
TTITLE2=grisel
TTITLE3=la cumparsita
TTITLE4=naranjo en flor
TTITLE5=tarde gris
TTITLE6=milonguenado en el 40
TTITLE7=tristeza en calle corrientes
TTITLE8=pa´que bailen los muchachos
TTITLE9=palomita blanca
TTITLE10=romance de barrio
TTITLE11=amor y tango
TTITLE12=los mareados
TTITLE13=mano brava
TTITLE14=barrio de tango
EXTD=
EXTT0=
EXTT1=
EXTT2=
EXTT3=
EXTT4=
EXTT5=
EXTT6=
EXTT7=
EXTT8=
EXTT9=
EXTT10=
EXTT11=
EXTT12=
EXTT13=
EXTT14=
PLAYORDER=
